<svg width="24" height="24" viewBox="0 0 24 24" fill="none" xmlns="http://www.w3.org/2000/svg">
<path d="M17.3059 21.562C16.1965 22.6374 14.9852 22.4676 13.8192 21.9582C12.5852 21.4374 11.4532 21.4148 10.1513 21.9582C8.52113 22.66 7.66077 22.4563 6.6872 21.562C1.16276 15.8677 1.97784 7.19614 8.24944 6.87917C9.77772 6.95841 10.8418 7.71689 11.7362 7.78481C13.072 7.51312 14.3512 6.732 15.7776 6.83388C17.487 6.96973 18.7776 7.64897 19.6266 8.87159C16.0946 10.9885 16.9323 15.6413 20.17 16.9432C19.5247 18.6412 18.687 20.328 17.2946 21.5733L17.3059 21.562ZM11.623 6.81124C11.4532 4.28676 13.5022 2.20377 15.8569 2C16.1852 4.92071 13.2078 7.09426 11.623 6.81124Z" fill="white"/>
</svg>
