<svg width="24" height="24" viewBox="0 0 24 24" fill="none" xmlns="http://www.w3.org/2000/svg">
<path d="M4.30894 3.08123C4.40271 3.02758 4.50895 2.99957 4.61698 3C4.72501 3.00044 4.83102 3.0293 4.92436 3.08369L14.5778 8.71478L11.5906 11.4029L4 4.57177V3.61541C3.99991 3.50705 4.02843 3.4006 4.08268 3.3068C4.13693 3.213 4.21498 3.13519 4.30894 3.08123ZM4 6.22848V18.2341L10.6712 12.2313L4 6.22848ZM4 19.8908V20.8472C3.99997 20.9555 4.02851 21.0618 4.08274 21.1556C4.13697 21.2493 4.21497 21.327 4.30886 21.381C4.40276 21.4349 4.50922 21.4631 4.61751 21.4628C4.72579 21.4624 4.83207 21.4335 4.92559 21.3789L14.5778 15.7478L11.5906 13.0596L4 19.8908ZM15.6942 15.0967L19.6944 12.763C19.7874 12.7088 19.8646 12.6312 19.9182 12.5379C19.9718 12.4446 20 12.3389 20 12.2313C20 12.1237 19.9718 12.018 19.9182 11.9247C19.8646 11.8314 19.7874 11.7537 19.6944 11.6996L15.6942 9.36589L12.51 12.2313L15.6942 15.0967Z" fill="white"/>
</svg>
