<svg width="32" height="32" viewBox="0 0 32 32" fill="none" xmlns="http://www.w3.org/2000/svg">
<path d="M27.71 4.29123C27.575 4.15691 27.4045 4.0639 27.2185 4.02316C27.0325 3.98242 26.8388 3.99563 26.66 4.06123L4.66 12.0612C4.47027 12.1332 4.30692 12.2612 4.19165 12.4282C4.07638 12.5952 4.01465 12.7933 4.01465 12.9962C4.01465 13.1992 4.07638 13.3973 4.19165 13.5643C4.30692 13.7313 4.47027 13.8593 4.66 13.9312L14.26 17.7712L18.1 27.3712C18.1721 27.5526 18.2958 27.7089 18.4557 27.8209C18.6157 27.9328 18.8049 27.9955 19 28.0012C19.2021 27.9971 19.3982 27.9318 19.5624 27.814C19.7266 27.6962 19.8513 27.5313 19.92 27.3412L27.92 5.34123C27.9881 5.16431 28.0046 4.97166 27.9674 4.78576C27.9302 4.59985 27.8409 4.42834 27.71 4.29123ZM19 24.2012L16.21 17.2012L21 12.4112L19.59 11.0012L14.76 15.8312L7.8 13.0012L25.33 6.67123L19 24.2012Z" fill="#518AF9"/>
</svg>
