<svg width="22" height="19" viewBox="0 0 22 19" fill="none" xmlns="http://www.w3.org/2000/svg">
<path d="M14.6346 2.60863L14.6339 2.60816C13.0952 1.56145 11.2505 1.05984 9.39373 1.18324C7.53692 1.30665 5.77483 2.04797 4.38825 3.28908C3.00167 4.5302 2.07038 6.19969 1.74278 8.03153C1.41518 9.86338 1.71011 11.7522 2.58059 13.3969C3.45106 15.0417 4.84699 16.3478 6.54594 17.1071C8.24489 17.8664 10.1491 18.0352 11.9551 17.5867C13.7612 17.1381 15.3651 16.098 16.5114 14.6321C17.6577 13.1661 18.2803 11.3587 18.2801 9.49776L18.2801 9.4966C18.278 8.60076 18.1326 7.71102 17.8495 6.86107L17.8464 6.85164L17.8428 6.84234C17.831 6.81088 17.8255 6.77735 17.8269 6.74375C17.8283 6.71015 17.8364 6.67717 17.8509 6.64679C17.8653 6.61641 17.8857 6.58925 17.9108 6.56694C17.936 6.54462 17.9654 6.52762 17.9973 6.51693C18.0292 6.50625 18.0629 6.5021 18.0964 6.50475C18.1299 6.5074 18.1626 6.51679 18.1924 6.53235C18.2222 6.54791 18.2486 6.56932 18.2699 6.59531C18.2913 6.62129 18.3071 6.65132 18.3166 6.6836L18.3191 6.692L18.3218 6.70032C18.7624 8.02782 18.8819 9.44089 18.6705 10.8235C18.4591 12.2062 17.9228 13.519 17.1056 14.6541C16.2885 15.7893 15.2137 16.7145 13.9696 17.3538C12.7258 17.9929 11.3481 18.328 9.94967 18.3316C8.56735 18.3314 7.20435 18.0069 5.97029 17.3841C4.73608 16.7612 3.66531 15.8573 2.84409 14.7452C2.02288 13.633 1.47416 12.3437 1.24207 10.9808C1.00998 9.61795 1.10101 8.21964 1.50782 6.89837C1.91463 5.5771 2.62588 4.36975 3.58434 3.37345C4.5428 2.37716 5.72172 1.61973 7.02626 1.16209C8.3308 0.704456 9.72454 0.559394 11.0954 0.738573C12.466 0.917728 13.7755 1.41604 14.9184 2.19342C14.9734 2.23104 15.0112 2.28891 15.0235 2.35435C15.0359 2.4199 15.0217 2.48766 14.9841 2.54275C14.9465 2.59783 14.8885 2.63572 14.823 2.64808C14.7574 2.66043 14.6896 2.64625 14.6346 2.60863Z" fill="#263238" stroke="#263238"/>
<path d="M9.68023 13.0617C9.56788 13.0617 9.45698 13.0364 9.35573 12.9877C9.25447 12.939 9.16545 12.8682 9.09523 12.7805L5.34523 8.08549C5.24949 7.93042 5.21349 7.7458 5.24395 7.56613C5.27441 7.38645 5.36925 7.22401 5.51074 7.10916C5.65223 6.99431 5.83071 6.93491 6.0128 6.94206C6.1949 6.9492 6.36817 7.0224 6.50023 7.14799L9.59398 10.9992C10.9252 8.92549 14.5552 3.99049 20.319 1.30549C20.4972 1.23284 20.6965 1.23148 20.8757 1.3017C21.0549 1.37192 21.2003 1.50834 21.2817 1.68273C21.3631 1.85713 21.3744 2.05614 21.3131 2.2386C21.2519 2.42107 21.1229 2.57301 20.9527 2.66299C14.1427 5.84299 10.374 12.6042 10.3365 12.6717C10.2757 12.7778 10.19 12.8674 10.0868 12.9327C9.98349 12.9981 9.86582 13.0372 9.74398 13.0467L9.68023 13.0617Z" fill="#263238"/>
</svg>
