<svg width="23" height="22" viewBox="0 0 23 22" fill="none" xmlns="http://www.w3.org/2000/svg">
<path d="M14.991 11C14.991 11.532 14.956 12.488 14.904 13.605C14.764 16.623 14.694 18.131 13.771 18.78C13.5925 18.9052 13.3973 19.0045 13.191 19.075C12.224 19.405 11.089 18.747 8.991 17.372M6.507 16.042C6.259 16 6.003 16 5.491 16C4.117 16 3.431 16 2.831 15.723C2.25041 15.4384 1.76913 14.9853 1.45 14.423C1.136 13.841 1.1 13.237 1.026 12.028C1.015 11.849 1.006 11.672 1 11.5M1.45 7.577C1.76913 7.01465 2.25041 6.5616 2.831 6.277C3.431 6 4.117 6 5.491 6C6.003 6 6.259 6 6.507 5.958C6.75229 5.91646 6.99146 5.84458 7.219 5.744C7.449 5.643 7.663 5.502 8.09 5.22L8.31 5.076C10.851 3.399 12.123 2.56 13.191 2.925C13.396 2.995 13.594 3.095 13.771 3.22C14.606 3.807 14.743 5.099 14.865 7.577M19.491 17C19.491 17 20.991 15.2 20.991 11C20.991 8.567 20.488 6.939 20.064 6M17.491 14C17.491 14 17.991 13.1 17.991 11C17.991 10.138 17.907 9.478 17.808 9M21.491 1L1.491 21" stroke="black" stroke-width="1.5" stroke-linecap="round"/>
</svg>
