<svg width="30" height="61" viewBox="0 0 30 61" fill="none" xmlns="http://www.w3.org/2000/svg">
<path d="M13.6647 17.9761C13.5227 15.3922 13.3775 12.8086 13.2469 10.2236C13.1439 8.18364 13.6223 4.96502 12.7469 3.17025C12.331 2.3168 12.7465 1.42644 13.6351 1.14281C13.7448 1.10795 13.8545 1.07257 13.9647 1.03775C14.6947 0.805092 15.4397 1.26028 15.822 1.85116C16.9825 3.64482 16.2467 6.66257 16.1656 8.65528C16.0386 11.7839 15.8978 14.9124 15.7554 18.0403C15.6943 19.4027 13.7377 19.305 13.6647 17.9761Z" fill="#C4C4C4"/>
<path d="M13.6647 37.1323C13.5227 34.5485 13.3775 31.9649 13.2469 29.3798C13.1439 27.3399 13.6223 24.1213 12.7469 22.3265C12.331 21.473 12.7465 20.5827 13.6351 20.2991C13.7448 20.2642 13.8545 20.2288 13.9647 20.194C14.6947 19.9613 15.4397 20.4165 15.822 21.0074C16.9825 22.8011 16.2467 25.8188 16.1656 27.8115C16.0386 30.9401 15.8978 34.0687 15.7554 37.1966C15.6943 38.5589 13.7377 38.4612 13.6647 37.1323Z" fill="#C4C4C4"/>
<path d="M13.6647 56.1323C13.5227 53.5485 13.3775 50.9649 13.2469 48.3798C13.1439 46.3399 13.6223 43.1213 12.7469 41.3265C12.331 40.473 12.7465 39.5827 13.6351 39.2991C13.7448 39.2642 13.8545 39.2288 13.9647 39.194C14.6947 38.9613 15.4397 39.4165 15.822 40.0074C16.9825 41.8011 16.2467 44.8188 16.1656 46.8115C16.0386 49.9401 15.8978 53.0687 15.7554 56.1966C15.6943 57.5589 13.7377 57.4612 13.6647 56.1323Z" fill="#C4C4C4"/>
<path d="M15.2373 56.9882C16.93 55.0308 18.6203 53.0716 20.322 51.1213C21.665 49.5823 24.245 47.5994 24.8621 45.7002C25.1558 44.7974 26.0731 44.4455 26.9093 44.8588C27.0125 44.9099 27.116 44.9607 27.2194 45.0122C27.9062 45.3519 28.1259 46.1969 27.9904 46.8875C27.5792 48.9839 24.9536 50.6435 23.511 52.0206C21.2463 54.1829 18.9718 56.3356 16.6966 58.4868C15.7062 59.4243 14.3666 57.9948 15.2373 56.9882Z" fill="#C4C4C4"/>
<path d="M12.5888 58.4507C10.6917 56.6907 8.79257 54.933 6.90287 53.1643C5.41173 51.7684 3.52005 49.1208 1.64356 48.4378C0.751562 48.1128 0.431921 47.1837 0.874087 46.3624C0.92877 46.2612 0.983122 46.1595 1.0382 46.0579C1.40173 45.3834 2.25383 45.1933 2.93928 45.3528C5.02008 45.8369 6.58704 48.5189 7.91296 50.0086C9.99491 52.3474 12.0669 54.6957 14.1374 57.0446C15.0397 58.0671 13.5644 59.356 12.5888 58.4507Z" fill="#C4C4C4"/>
</svg>
