<svg width="68" height="99" viewBox="0 0 68 99" fill="none" xmlns="http://www.w3.org/2000/svg">
<path d="M17.6898 96.9112C17.4143 96.8368 17.1394 96.7623 16.8639 96.6878C16.841 97.0178 16.8175 97.3479 16.7946 97.6779C16.0585 96.5139 13.3305 95.6942 12.1007 94.981C10.6244 94.1256 9.16406 93.2426 7.72049 92.3331C5.9372 91.2094 1.3193 89.2226 1.001 86.82C0.639343 84.0931 4.76705 82.2557 6.51668 80.9749C8.17142 79.7639 9.82564 78.5524 11.4804 77.3415C12.3827 76.6809 13.2851 76.0203 14.188 75.3592C14.4889 75.1389 14.7899 74.919 15.0903 74.6987C15.9141 73.6851 16.2681 73.8075 16.1523 75.0654C16.6864 75.3358 17.22 75.6061 17.754 75.8765C17.6025 75.8709 17.4505 75.8653 17.2991 75.8591C17.8112 75.5271 18.3233 75.195 18.836 74.8634C18.7595 74.5497 18.6829 74.2365 18.6064 73.9233C19.5481 74.815 19.0329 76.5294 17.6699 76.5799C16.6109 76.6192 16.0952 76.3121 15.4806 75.4505C15.1133 74.9359 15.0771 74.1743 15.3739 73.6203C15.4459 73.4867 15.5173 73.3525 15.5892 73.2189C15.8754 72.6848 16.4834 72.1931 17.1261 72.2232C19.4878 72.3328 20.6223 74.6288 18.9002 76.4008C17.4133 77.9316 15.1908 79.0671 13.4529 80.3163C11.486 81.7303 9.51909 83.1438 7.55165 84.5578C6.68041 85.1842 5.57861 85.7519 4.82724 86.514C4.3605 87.0231 4.22277 86.9481 4.41304 86.289C4.94353 86.7196 5.47759 87.146 6.01421 87.5689C7.62254 88.8354 9.25586 90.0714 10.9147 91.2711C12.7765 92.6173 14.6741 93.9109 16.5971 95.1682C17.4725 95.7406 18.2529 96.0726 18.2866 97.1887C18.2973 97.5473 18.0708 97.8886 17.7265 98.0013C17.2552 98.1554 17.0103 98.0753 16.6176 97.783C16.36 97.5912 16.3554 97.23 16.4615 96.9633C16.4803 96.9163 16.4987 96.8689 16.5176 96.822C16.7119 96.3328 17.5806 96.3797 17.6898 96.9112Z" fill="#C4C4C4"/>
<path d="M2.56493 85.661C9.04109 85.4748 14.9618 83.7109 20.5789 80.5218C22.0781 79.6705 23.5716 81.8889 22.0689 82.7688C16.1942 86.2094 9.4303 87.7784 2.64961 87.4494C1.52332 87.3943 1.39018 85.6947 2.56493 85.661Z" fill="#C4C4C4"/>
<path d="M28.1899 77.2888C30.5746 75.6983 32.8674 73.9865 35.0108 72.0802C36.7753 70.5117 38.3122 68.4576 40.3362 67.2456C41.2411 66.7039 42.547 67.6633 41.9563 68.6871C40.7443 70.7887 38.4448 72.3792 36.5238 73.8212C34.1549 75.5994 31.6524 77.172 29.0596 78.6008C28.1837 79.0833 27.3355 77.8581 28.1899 77.2888Z" fill="#C4C4C4"/>
<path d="M46.012 62.885C50.6187 58.5992 54.2189 53.8374 57.3738 48.4126C58.1992 46.9935 60.4584 48.1116 59.6631 49.572C56.5898 55.2147 52.0852 60.1412 46.9521 63.9664C46.3048 64.4484 45.408 63.4466 46.012 62.885Z" fill="#C4C4C4"/>
<path d="M60.928 40.6059C61.0902 38.5879 61.6987 36.6205 62.14 34.6485C62.4802 33.1268 63.6478 30.1479 62.7699 28.7778C62.3251 28.083 62.6399 27.1261 63.4346 26.8654C63.533 26.8333 63.631 26.8012 63.7294 26.7685C64.4114 26.5446 65.0363 26.8455 65.4612 27.3699C66.7655 28.9793 65.5642 31.5542 65.0562 33.2503C64.2956 35.7911 63.5438 38.6252 62.0701 40.8497C61.7855 41.2792 60.8734 41.2853 60.928 40.6059Z" fill="#C4C4C4"/>
<path d="M65.3259 17.9262C64.9816 15.3614 64.6342 12.7972 64.3011 10.2304C64.0384 8.2048 64.2628 4.95855 63.2493 3.238C62.7677 2.41981 63.112 1.4996 63.9756 1.14713C64.0822 1.10377 64.1888 1.05989 64.296 1.01654C65.0055 0.727314 65.7839 1.12264 66.2114 1.68171C67.5091 3.37879 67.0122 6.44497 67.0877 8.43791C67.2066 11.5668 67.3117 14.6968 67.4152 17.8262C67.4611 19.1892 65.5029 19.2453 65.3259 17.9262Z" fill="#C4C4C4"/>
</svg>
