<svg width="105" height="117" viewBox="0 0 105 117" fill="none" xmlns="http://www.w3.org/2000/svg">
<path d="M89.107 92.5245C89.3148 92.329 89.5222 92.1337 89.73 91.9381C89.9058 92.2183 90.0821 92.4983 90.2579 92.7786C90.3583 91.405 92.3776 89.396 93.1261 88.1873C94.0246 86.737 94.8963 85.2698 95.7406 83.7872C96.7835 81.9554 99.9194 78.0262 99.0674 75.7573C98.1008 73.1819 93.5943 73.5075 91.4475 73.2028C89.4173 72.915 87.3873 72.6264 85.3571 72.3386C84.2499 72.1814 83.1427 72.0243 82.0348 71.8669C81.6655 71.8145 81.2964 71.7625 80.9276 71.7098C79.7232 71.2043 79.4687 71.4791 80.1639 72.5339C79.8203 73.0241 79.4772 73.514 79.1337 74.0043C79.2647 73.9279 79.3961 73.8513 79.5268 73.7745C78.9186 73.723 78.3104 73.6716 77.702 73.6209C77.6215 73.3082 77.5414 72.9959 77.4612 72.6836C77.0511 73.9139 78.3137 75.1829 79.5395 74.5849C80.4919 74.1203 80.802 73.6064 80.9379 72.5568C81.0191 71.9298 80.6921 71.2411 80.1691 70.8925C80.0426 70.8085 79.9164 70.7239 79.79 70.6399C79.2858 70.3038 78.5178 70.1568 77.9652 70.4864C75.9341 71.6965 76.016 74.2561 78.3701 75.0071C80.4031 75.6561 82.8984 75.6097 85.02 75.892C87.4212 76.2117 89.8222 76.531 92.2239 76.8505C93.2875 76.9922 94.5269 76.9734 95.5488 77.2913C96.2004 77.5202 96.2865 77.3891 95.808 76.8976C95.5431 77.5274 95.2732 78.1552 94.9993 78.7811C94.178 80.6563 93.3203 82.5163 92.423 84.3564C91.4156 86.4213 90.352 88.4567 89.2489 90.4722C88.7467 91.3896 88.215 92.0504 88.7115 93.0506C88.8711 93.3719 89.2317 93.566 89.5885 93.5031C90.0768 93.4168 90.255 93.2307 90.4635 92.7878C90.6003 92.4972 90.4341 92.1765 90.2148 91.9913C90.176 91.9588 90.1374 91.9256 90.0987 91.8931C89.6967 91.5534 88.9527 92.0043 89.107 92.5245Z" fill="#C4C4C4"/>
<path d="M97.1428 75.4817C91.3437 78.3706 85.2907 79.6063 78.8335 79.4419C77.11 79.3979 76.8387 82.0584 78.5788 82.126C85.3817 82.3906 92.0865 80.5856 97.9113 77.0988C98.8786 76.5192 98.1947 74.9576 97.1428 75.4817Z" fill="#C4C4C4"/>
<path d="M70.5969 80.1703C67.7441 79.8919 64.9149 79.4632 62.126 78.7926C59.8305 78.2411 57.5067 77.1541 55.1503 77.0395C54.0969 76.9883 53.3976 78.4501 54.4011 79.0745C56.4608 80.3565 59.2385 80.6751 61.6125 81.0412C64.5399 81.4926 67.4883 81.6997 70.4485 81.7373C71.4483 81.75 71.6188 80.2695 70.5969 80.1703Z" fill="#C4C4C4"/>
<path d="M48.0899 75.8727C42.0068 74.2648 36.5869 71.7628 31.2471 68.466C29.8502 67.6036 28.385 69.6547 29.7748 70.5677C35.1453 74.0951 41.4405 76.3161 47.7707 77.2696C48.5688 77.3896 48.8873 76.0833 48.0899 75.8727Z" fill="#C4C4C4"/>
<path d="M24.4312 63.2558C23.3368 61.5526 21.8726 60.1044 20.5538 58.5733C19.5364 57.3918 17.1023 55.3151 17.2306 53.693C17.2953 52.8706 16.5666 52.175 15.7428 52.3198C15.6409 52.3379 15.5393 52.3557 15.4371 52.3734C14.7301 52.4974 14.3209 53.0574 14.1934 53.7201C13.8019 55.7543 16.0752 57.4589 17.3228 58.7151C19.1914 60.5973 21.1905 62.7422 23.5389 64.0092C23.9924 64.2538 24.7996 63.8292 24.4312 63.2558Z" fill="#C4C4C4"/>
<path d="M9.86105 45.3272C8.95557 42.903 8.05305 40.4779 7.13672 38.0572C6.41345 36.147 4.68512 33.3899 4.76784 31.3947C4.80677 30.4462 4.06929 29.797 3.14152 29.8932C3.02706 29.9053 2.91236 29.9168 2.79745 29.9291C2.03536 30.0085 1.53526 30.7241 1.42185 31.4187C1.0775 33.5271 2.96116 35.997 3.83413 37.7901C5.20441 40.6056 6.5873 43.4154 7.97132 46.224C8.57339 47.4477 10.3268 46.574 9.86105 45.3272Z" fill="#C4C4C4"/>
</svg>
